<svg xmlns="http://www.w3.org/2000/svg" width="41" height="69" viewBox="0 0 41 69">
  <g fill="none" fill-rule="evenodd">
    <g fill="#00D8FF" fill-rule="nonzero" transform="translate(5.483 20.74)">
      <ellipse cx="14.854" cy="13.558" rx="2.649" ry="2.727"/>
      <path d="M14.8544922,19.8048231 C11.134273,19.8048231 7.88369852,19.3539728 5.45104456,18.4957276 C3.87324947,17.9416705 2.53291519,17.2029278 1.57779508,16.3609784 C0.56462901,15.4701416 0.0263845332,14.4978258 0.0263845332,13.5581016 C0.0263845332,11.7547003 1.94717855,9.98932246 5.17136851,8.83775293 C7.80982183,7.89259681 11.250365,7.36569943 14.8492153,7.36569943 C18.3847427,7.36569943 21.7777937,7.87630101 24.4004163,8.81059327 C25.9359961,9.35378644 27.2288383,10.0599376 28.14702,10.8421357 C29.1443554,11.700381 29.672046,12.6401051 29.672046,13.5581016 C29.672046,15.4321181 27.524345,17.3278622 24.0626943,18.5065914 C21.6142096,19.3431089 18.3425275,19.8048231 14.8544922,19.8048231 Z M14.8544922,8.66936305 C11.4403336,8.66936305 8.06311334,9.17996463 5.59352104,10.0653695 C2.62789951,11.1300281 1.29811903,12.5857858 1.29811903,13.5581016 C1.29811903,14.5684409 2.72816073,16.1599969 5.86264328,17.262679 C8.16337457,18.0720369 11.2767495,18.5011595 14.8544922,18.5011595 C18.2106048,18.5011595 21.3398104,18.0666049 23.6669263,17.268111 C26.9227777,16.154565 28.4108653,14.563009 28.4108653,13.5581016 C28.4108653,13.0420681 28.0309281,12.4336917 27.3396533,11.8416112 C26.5428404,11.1571878 25.3819209,10.5325156 23.9940945,10.0382098 C21.4981176,9.1582369 18.2528201,8.66936305 14.8544922,8.66936305 Z"/>
      <path d="M8.84409553,27.1487948 C8.30585105,27.1487948 7.83092945,27.0292923 7.42988455,26.7902873 C5.91541234,25.8885866 5.38772168,23.2921233 6.02622738,19.8428466 C6.54864114,17.0128102 7.82565254,13.688468 9.62507771,10.4781963 C11.3928414,7.32767591 13.5141579,4.55739072 15.6090898,2.68337428 C16.8333322,1.58612407 18.0734052,0.782198169 19.1921094,0.358507494 C20.4110749,-0.103206703 21.4664562,-0.103206703 22.2368846,0.353075562 C23.8146797,1.28736782 24.3370934,4.15542778 23.5983265,7.82741363 C23.0759127,10.4347409 21.8305628,13.5798293 20.0891836,16.6923262 C18.2317124,20.0058046 16.2264879,22.678315 14.2898632,24.4219651 C13.0339594,25.5518069 11.7411173,26.3774605 10.5590902,26.8065831 C9.94169211,27.0347242 9.36123238,27.1487948 8.84409553,27.1487948 Z M10.1685991,10.8041122 L10.7173974,11.1300281 C9.01295654,14.1719099 7.75177585,17.4365009 7.26630044,20.0872835 C6.6805638,23.2649636 7.24519281,25.1770036 8.05783644,25.6604455 C8.25835889,25.779948 8.52220422,25.8451312 8.84409553,25.8451312 C9.89419995,25.8451312 11.5458717,25.1607078 13.4561119,23.4442174 C15.2871985,21.798342 17.2027156,19.2344703 18.991587,16.0459263 C20.6696433,13.052932 21.8622242,10.0436418 22.3582534,7.57211284 C23.0495282,4.11197232 22.4532377,1.99351895 21.6036558,1.48834929 C21.1709494,1.2330485 20.4691209,1.26564009 19.6248158,1.58612407 C18.6485881,1.95549542 17.5457146,2.67794234 16.4375642,3.67198585 C14.4481704,5.45365946 12.4165613,8.10444215 10.7173974,11.1354601 L10.1685991,10.8041122 Z"/>
      <path d="M20.8648888,27.1650906 C19.4295702,27.1650906 17.6090375,26.2742538 15.7093511,24.590355 C13.5880346,22.7109066 11.4297798,19.9134617 9.62507771,16.7031901 L9.62507771,16.7031901 C7.85203708,13.5526697 6.58557948,10.2772148 6.05261191,7.46890613 C5.74127442,5.82846275 5.68322845,4.32381766 5.8837509,3.11249688 C6.10538098,1.79253747 6.62779474,0.852813284 7.40350001,0.391099086 C8.97601819,-0.548625104 11.6514099,0.418258745 14.3742937,2.91151541 C16.3056415,4.67689322 18.3319737,7.3602675 20.0786298,10.4673325 C21.9413778,13.7808108 23.1920047,16.9041716 23.6880339,19.5006349 C24.0099252,21.1845338 24.0626943,22.7489301 23.8357873,24.0200021 C23.5930496,25.3725531 23.0442513,26.334005 22.2527153,26.8065831 C21.8569473,27.0455881 21.3873026,27.1650906 20.8648888,27.1650906 Z M10.7226743,16.0513583 C12.432392,19.09324 14.5537085,21.8472294 16.5378254,23.6017434 C18.9177103,25.7093329 20.8068429,26.1656152 21.6247634,25.6767413 C22.4743454,25.1715717 23.0970204,23.1020057 22.4532377,19.7559357 C21.9783161,17.3007026 20.7804583,14.3131401 18.9863101,11.1245962 C17.3029769,8.13160181 15.3663521,5.5622981 13.5352655,3.88926312 C10.9706889,1.54266861 8.89158769,1.01577124 8.04200572,1.52094089 C7.60929937,1.77624168 7.28740807,2.42264155 7.13437778,3.33520609 C6.96023986,4.38900084 7.01300892,5.73611991 7.29796188,7.21903727 C7.80454492,9.88611576 9.01823345,13.0203404 10.7226743,16.0513583 L10.7226743,16.0513583 Z"/>
    </g>
    <path fill="#0B528F" d="M34.1889251,0 L6.81107492,0 C4.94135868,0 3.33876905,0.6738195 2.00325733,2.02148438 C0.667745776,3.36914925 0,4.9863195 0,6.87304688 L0,62.1269531 C0,64.0136814 0.667745776,65.6308525 2.00325733,66.9785156 C3.33876905,68.3261786 4.94135868,69 6.81107492,69 L34.1889251,69 C36.0586405,69 37.6612292,68.3261786 38.9967427,66.9785156 C40.3322561,65.6308525 41,64.0136814 41,62.1269531 L41,6.87304688 C41,4.9863195 40.3322561,3.36914925 38.9967427,2.02148438 C37.6612292,0.6738195 36.0586405,0 34.1889251,0 Z M21.0395679,66.628965 C20.5501031,66.628965 20.1265374,66.4512201 19.7688527,66.0957248 C19.411168,65.7402295 19.2323311,65.3136415 19.2323311,64.8159484 C19.2323311,64.3182552 19.411168,63.8916672 19.7688527,63.5361719 C20.1265374,63.1806785 20.5501031,63.002934 21.0395679,63.002934 C21.5290291,63.002934 21.9525948,63.1806785 22.3102795,63.5361719 C22.6679642,63.8916672 22.8468047,64.3182552 22.8468047,64.8159484 C22.8468047,65.3136415 22.6679642,65.7402295 22.3102795,66.0957248 C21.9525948,66.4512201 21.5290291,66.628965 21.0395679,66.628965 Z M38.0112806,60.375 L2.98871936,60.375 L2.98871936,6.940434 L38.0112806,6.940434 L38.0112806,60.375 Z" opacity=".7"/>
  </g>
</svg>
