<?xml version="1.0" encoding="UTF-8" standalone="no"?>
<svg xmlns="http://www.w3.org/2000/svg" height="59px" width="64px" version="1.1" xmlns:xlink="http://www.w3.org/1999/xlink" viewBox="0 0 64 59"><!-- Generator: Sketch 51.1 (57501) - http://www.bohemiancoding.com/sketch -->
 <title>react</title>
 <desc>Created with Sketch.</desc>
 <g id="Page-1" fill-rule="evenodd" fill="none">
  <g id="home" fill-rule="nonzero" fill="#00D8FF" transform="translate(-565 -748)">
   <g id="react" transform="translate(565 748)">
    <g id="if_React.js_logo_1174949" transform="translate(.18750 .54646)">
     <ellipse id="Oval" cy="29.021" cx="31.469" rx="5.6118" ry="5.8367"/>
     <path id="Shape" d="m31.469 42.392c-7.881 0-14.768-0.965-19.921-2.802-3.3426-1.186-6.1821-2.768-8.2055-4.57-2.1464-1.907-3.2866-3.988-3.2866-5.999-0.000005-3.86 4.0691-7.639 10.899-10.104 5.59-2.023 12.879-3.151 20.503-3.151 7.489 0 14.678 1.093 20.233 3.093 3.254 1.162 5.992 2.674 7.938 4.348 2.112 1.837 3.23 3.849 3.23 5.814 0 4.011-4.55 8.069-11.883 10.592-5.187 1.79-12.118 2.779-19.507 2.779zm0-23.836c-7.233 0-14.388 1.093-19.619 2.989-6.2829 2.278-9.1 5.394-9.1 7.476 0 2.162 3.0295 5.569 9.67 7.929 4.874 1.733 11.469 2.651 19.049 2.651 7.11 0 13.739-0.93 18.669-2.639 6.897-2.384 10.049-5.79 10.049-7.941 0-1.105-0.804-2.407-2.269-3.674-1.688-1.465-4.147-2.802-7.087-3.861-5.288-1.883-12.163-2.93-19.362-2.93z"/>
     <path id="Shape" d="m18.736 58.111c-1.14 0-2.146-0.256-2.996-0.767-3.208-1.93-4.326-7.488-2.974-14.871 1.107-6.058 3.812-13.173 7.624-20.045 3.745-6.743 8.239-12.673 12.677-16.684 2.594-2.349 5.221-4.0697 7.591-4.9766 2.582-0.98831 4.818-0.98831 6.45-0.01165 3.343 1.9998 4.449 8.1388 2.884 15.998-1.106 5.581-3.745 12.313-7.434 18.975-3.935 7.093-8.183 12.813-12.285 16.545-2.661 2.419-5.4 4.186-7.904 5.105-1.308 0.488-2.538 0.732-3.633 0.732zm2.806-34.985l1.162 0.697c-3.61 6.512-6.282 13.499-7.311 19.173-1.24 6.802-0.044 10.895 1.677 11.929 0.425 0.256 0.984 0.396 1.666 0.396 2.225 0 5.724-1.465 9.77-5.139 3.879-3.523 7.937-9.011 11.727-15.836 3.555-6.407 6.081-12.848 7.132-18.138 1.465-7.4065 0.201-11.941-1.598-13.022-0.917-0.5467-2.404-0.4769-4.192 0.209-2.069 0.7907-4.405 2.3371-6.753 4.4648-4.214 3.8132-8.518 9.4872-12.118 15.975l-1.162-0.709z"/>
     <path id="Shape" d="m44.202 58.146c-3.041 0-6.898-1.907-10.922-5.511-4.494-4.023-9.066-10.011-12.89-16.882-3.756-6.744-6.439-13.755-7.568-19.766-0.659-3.511-0.782-6.732-0.357-9.3248 0.469-2.8253 1.576-4.8368 3.219-5.8251 3.331-2.0114 8.999 0.05817 14.767 5.3949 4.092 3.779 8.385 9.522 12.085 16.173 3.946 7.092 6.595 13.778 7.646 19.335 0.682 3.605 0.794 6.953 0.313 9.674-0.514 2.895-1.677 4.953-3.353 5.965-0.839 0.511-1.834 0.767-2.94 0.767zm-21.486-23.789c3.622 6.511 8.116 12.406 12.319 16.162 5.042 4.511 9.044 5.488 10.776 4.441 1.8-1.081 3.119-5.511 1.755-12.673-1.006-5.255-3.543-11.65-7.344-18.475-3.566-6.407-7.669-11.906-11.548-15.487-5.433-5.023-9.837-6.1508-11.637-5.0695-0.917 0.5465-1.599 1.9301-1.923 3.8834-0.369 2.2556-0.257 5.1391 0.346 8.3131 1.074 5.709 3.645 12.418 7.256 18.905z"/>
    </g>
   </g>
  </g>
 </g>
</svg>
